<svg width="973" height="168" viewBox="0 0 973 168" fill="none" xmlns="http://www.w3.org/2000/svg">
<path d="M87.6 91.16C88.8 90.68 89.8 90.44 90.6 90.44C91.88 90.44 92.84 90.92 93.48 91.88C94.12 92.84 94.44 94.08 94.44 95.6C94.44 98 93.84 100.04 92.64 101.72C91.52 103.4 89.56 104.92 86.76 106.28C82.04 108.52 75.92 110.32 68.4 111.68C60.88 112.96 53.48 113.6 46.2 113.6C36.12 113.6 27.68 112.48 20.88 110.24C14.08 107.92 9 104.76 5.64 100.76C2.36 96.76 0.72 92.24 0.72 87.2C0.72 80.32 2.92 74.48 7.32 69.68C11.8 64.8 18.36 61.28 27 59.12C22.28 57.76 18.64 55.36 16.08 51.92C13.6 48.48 12.36 44.64 12.36 40.4C12.36 34.64 14.16 29.56 17.76 25.16C21.44 20.68 26.36 17.24 32.52 14.84C38.68 12.44 45.44 11.24 52.8 11.24C62.72 11.24 70.16 13.4 75.12 17.72C80.08 21.96 82.56 27.48 82.56 34.28C82.56 39 81.68 42.84 79.92 45.8C78.24 48.68 75.8 50.12 72.6 50.12C70.36 50.12 68.6 49.64 67.32 48.68C66.04 47.64 65.4 46.12 65.4 44.12C65.4 42.76 65.6 41.28 66 39.68C66.4 37.04 66.6 35.24 66.6 34.28C66.6 31.4 65.52 29.08 63.36 27.32C61.2 25.48 57.6 24.56 52.56 24.56C45.76 24.56 40.32 26 36.24 28.88C32.16 31.76 30.12 35.64 30.12 40.52C30.12 44.28 31.64 47.4 34.68 49.88C37.8 52.28 42.84 53.6 49.8 53.84C51.56 53.92 52.8 54.32 53.52 55.04C54.24 55.76 54.6 56.96 54.6 58.64C54.6 63.92 52.2 66.6 47.4 66.68C40.76 66.84 35.24 67.76 30.84 69.44C26.52 71.12 23.36 73.28 21.36 75.92C19.44 78.48 18.48 81.24 18.48 84.2C18.48 89.16 20.8 92.92 25.44 95.48C30.08 97.96 37.44 99.2 47.52 99.2C54.16 99.2 61.16 98.44 68.52 96.92C75.96 95.32 82.32 93.4 87.6 91.16ZM143.254 76.52C143.494 76.44 143.894 76.4 144.454 76.4C145.654 76.4 146.574 76.8 147.214 77.6C147.854 78.4 148.174 79.48 148.174 80.84C148.174 83.32 147.694 85.28 146.734 86.72C145.774 88.08 144.334 89.08 142.414 89.72C138.734 90.92 134.814 91.52 130.654 91.52C127.134 91.52 123.814 91.04 120.694 90.08C118.374 93.84 115.814 97.72 113.014 101.72C109.814 106.28 107.054 109.4 104.734 111.08C102.414 112.76 99.7738 113.6 96.8138 113.6C93.5338 113.6 90.9338 112.32 89.0138 109.76C87.1738 107.2 86.0138 103.16 85.5338 97.64C84.5738 86.44 84.0938 76.64 84.0938 68.24V64.04C84.1738 61.4 84.8938 59.56 86.2538 58.52C87.6138 57.48 89.6538 56.96 92.3738 56.96C94.4538 56.96 95.9738 57.44 96.9338 58.4C97.9738 59.28 98.4938 60.8 98.4938 62.96C98.4938 72.16 99.0538 84.12 100.174 98.84C104.974 91.72 108.574 86.04 110.974 81.8C109.774 79.48 109.174 76.72 109.174 73.52C109.174 70.8 109.774 68.16 110.974 65.6C112.174 63.04 113.814 60.96 115.894 59.36C117.974 57.76 120.334 56.96 122.974 56.96C125.294 56.96 127.174 57.8 128.614 59.48C130.054 61.08 130.774 63.44 130.774 66.56C130.774 70.16 129.814 74.28 127.894 78.92C130.934 78.76 134.974 78.16 140.014 77.12L143.254 76.52ZM191.28 86.24C192.32 86.24 193.12 86.72 193.68 87.68C194.32 88.64 194.64 89.96 194.64 91.64C194.64 94.84 193.88 97.32 192.36 99.08C189.4 102.68 185.2 106 179.76 109.04C174.4 112.08 168.64 113.6 162.48 113.6C154.08 113.6 147.56 111.32 142.92 106.76C138.28 102.2 135.96 95.96 135.96 88.04C135.96 82.52 137.12 77.4 139.44 72.68C141.76 67.88 144.96 64.08 149.04 61.28C153.2 58.48 157.88 57.08 163.08 57.08C167.72 57.08 171.44 58.48 174.24 61.28C177.04 64 178.44 67.72 178.44 72.44C178.44 77.96 176.44 82.72 172.44 86.72C168.52 90.64 161.84 93.76 152.4 96.08C154.4 99.76 158.2 101.6 163.8 101.6C167.4 101.6 171.48 100.36 176.04 97.88C180.68 95.32 184.68 92 188.04 87.92C189 86.8 190.08 86.24 191.28 86.24ZM161.04 68.84C158.08 68.84 155.56 70.56 153.48 74C151.48 77.44 150.48 81.6 150.48 86.48V86.72C155.2 85.6 158.92 83.92 161.64 81.68C164.36 79.44 165.72 76.84 165.72 73.88C165.72 72.36 165.28 71.16 164.4 70.28C163.6 69.32 162.48 68.84 161.04 68.84ZM193.389 113.6C190.349 113.6 188.189 112 186.909 108.8C185.709 105.6 185.109 100.48 185.109 93.44C185.109 83.04 186.589 73.16 189.549 63.8C190.269 61.48 191.429 59.8 193.029 58.76C194.709 57.64 197.029 57.08 199.989 57.08C201.589 57.08 202.709 57.28 203.349 57.68C203.989 58.08 204.309 58.84 204.309 59.96C204.309 61.24 203.709 64.12 202.509 68.6C201.709 71.8 201.069 74.6 200.589 77C200.109 79.4 199.709 82.36 199.389 85.88C202.029 79 204.989 73.4 208.269 69.08C211.549 64.76 214.749 61.68 217.869 59.84C221.069 58 223.989 57.08 226.629 57.08C231.829 57.08 234.429 59.68 234.429 64.88C234.429 65.92 234.069 68.44 233.349 72.44C232.709 75.64 232.389 77.64 232.389 78.44C232.389 81.24 233.389 82.64 235.389 82.64C237.629 82.64 240.509 80.88 244.029 77.36C245.069 76.32 246.149 75.8 247.269 75.8C248.309 75.8 249.109 76.28 249.669 77.24C250.309 78.12 250.629 79.32 250.629 80.84C250.629 83.8 249.829 86.12 248.229 87.8C245.989 90.12 243.349 92.12 240.309 93.8C237.349 95.4 234.189 96.2 230.829 96.2C226.589 96.2 223.349 95.12 221.109 92.96C218.949 90.8 217.869 87.88 217.869 84.2C217.869 83 217.989 81.8 218.229 80.6C218.389 79 218.469 77.92 218.469 77.36C218.469 76.08 218.029 75.44 217.149 75.44C215.949 75.44 214.349 76.8 212.349 79.52C210.429 82.16 208.509 85.68 206.589 90.08C204.669 94.48 203.109 99.12 201.909 104C201.029 107.76 199.989 110.32 198.789 111.68C197.669 112.96 195.869 113.6 193.389 113.6ZM284.959 86.24C285.999 86.24 286.799 86.72 287.359 87.68C287.999 88.64 288.319 89.96 288.319 91.64C288.319 94.84 287.559 97.32 286.039 99.08C282.599 103.32 278.839 106.8 274.759 109.52C270.759 112.24 266.199 113.6 261.079 113.6C254.039 113.6 248.799 110.4 245.359 104C241.999 97.6 240.319 89.32 240.319 79.16C240.319 69.4 241.559 58.28 244.039 45.8C246.599 33.32 250.319 22.6 255.199 13.64C260.159 4.67999 266.039 0.199993 272.839 0.199993C276.679 0.199993 279.679 1.99999 281.839 5.6C284.079 9.12 285.199 14.2 285.199 20.84C285.199 30.36 282.559 41.4 277.279 53.96C271.999 66.52 264.839 78.96 255.799 91.28C256.359 94.56 257.279 96.92 258.559 98.36C259.839 99.72 261.519 100.4 263.599 100.4C266.879 100.4 269.759 99.48 272.239 97.64C274.719 95.72 277.879 92.48 281.719 87.92C282.679 86.8 283.759 86.24 284.959 86.24ZM270.199 12.08C268.359 12.08 266.279 15.4 263.959 22.04C261.639 28.68 259.599 36.92 257.839 46.76C256.079 56.6 255.119 66.04 254.959 75.08C260.639 65.72 265.159 56.36 268.519 47C271.879 37.56 273.559 28.96 273.559 21.2C273.559 15.12 272.439 12.08 270.199 12.08ZM292.208 113.6C287.248 113.6 283.288 111.8 280.328 108.2C277.368 104.6 275.888 99.88 275.888 94.04C275.888 87.64 277.368 81.6 280.328 75.92C283.288 70.16 287.208 65.56 292.088 62.12C297.048 58.6 302.288 56.84 307.808 56.84C309.568 56.84 310.728 57.2 311.288 57.92C311.928 58.56 312.448 59.76 312.848 61.52C314.528 61.2 316.288 61.04 318.128 61.04C322.048 61.04 324.008 62.44 324.008 65.24C324.008 66.92 323.408 70.92 322.208 77.24C320.368 86.44 319.448 92.84 319.448 96.44C319.448 97.64 319.728 98.6 320.288 99.32C320.928 100.04 321.728 100.4 322.688 100.4C324.208 100.4 326.048 99.44 328.208 97.52C330.368 95.52 333.288 92.32 336.968 87.92C337.928 86.8 339.008 86.24 340.208 86.24C341.248 86.24 342.048 86.72 342.608 87.68C343.248 88.64 343.568 89.96 343.568 91.64C343.568 94.84 342.808 97.32 341.288 99.08C338.008 103.16 334.528 106.6 330.848 109.4C327.168 112.2 323.608 113.6 320.168 113.6C317.528 113.6 315.088 112.72 312.848 110.96C310.688 109.12 309.048 106.64 307.928 103.52C303.768 110.24 298.528 113.6 292.208 113.6ZM296.528 101.48C298.288 101.48 299.968 100.44 301.568 98.36C303.168 96.28 304.328 93.52 305.048 90.08L309.488 68C306.128 68.08 303.008 69.36 300.128 71.84C297.328 74.24 295.088 77.44 293.408 81.44C291.728 85.44 290.888 89.68 290.888 94.16C290.888 96.64 291.368 98.48 292.328 99.68C293.368 100.88 294.768 101.48 296.528 101.48ZM356.135 116.24C351.975 116.24 348.775 115.28 346.535 113.36C344.375 111.44 343.295 109.28 343.295 106.88C343.295 104.8 344.055 103 345.575 101.48C347.095 99.96 349.335 99.2 352.295 99.2C353.335 99.2 354.535 99.32 355.895 99.56C357.335 99.72 358.415 99.84 359.135 99.92C359.055 97.84 358.575 95.88 357.695 94.04C356.895 92.2 355.855 90.44 354.575 88.76C353.295 87 352.095 85.48 350.975 84.2C348.495 88.92 346.015 92.84 343.535 95.96C341.135 99.08 338.495 102.04 335.615 104.84C334.175 106.28 332.655 107 331.055 107C329.775 107 328.735 106.56 327.935 105.68C327.135 104.72 326.735 103.56 326.735 102.2C326.735 100.6 327.295 99.12 328.415 97.76L329.975 95.84C334.375 90.4 337.695 85.92 339.935 82.4C341.295 80.08 342.895 77 344.735 73.16C346.575 69.24 348.375 65.2 350.135 61.04C351.655 57.52 354.815 55.76 359.615 55.76C361.855 55.76 363.415 55.96 364.295 56.36C365.175 56.76 365.615 57.4 365.615 58.28C365.615 58.76 365.455 59.52 365.135 60.56C364.815 61.6 364.375 62.64 363.815 63.68C362.375 66.56 361.655 69 361.655 71C361.655 72.2 362.055 73.52 362.855 74.96C363.735 76.4 365.055 78.2 366.815 80.36C369.375 83.72 371.295 86.6 372.575 89C373.935 91.32 374.615 93.88 374.615 96.68C374.615 97.48 374.535 98.6 374.375 100.04C378.295 98.52 382.895 94.48 388.175 87.92C389.135 86.8 390.215 86.24 391.415 86.24C392.455 86.24 393.255 86.72 393.815 87.68C394.455 88.64 394.775 89.96 394.775 91.64C394.775 94.68 394.015 97.16 392.495 99.08C388.495 104.04 384.655 107.44 380.975 109.28C377.375 111.04 372.895 112 367.535 112.16C364.335 114.88 360.535 116.24 356.135 116.24ZM438.546 86.24C439.586 86.24 440.386 86.72 440.946 87.68C441.586 88.64 441.906 89.96 441.906 91.64C441.906 94.84 441.146 97.32 439.626 99.08C436.186 103.32 432.426 106.8 428.346 109.52C424.266 112.24 419.586 113.6 414.306 113.6C397.986 113.6 389.826 102.12 389.826 79.16C389.826 75.64 389.946 72.08 390.186 68.48H385.506C383.106 68.48 381.466 68.04 380.586 67.16C379.786 66.28 379.386 64.88 379.386 62.96C379.386 58.48 381.186 56.24 384.786 56.24H391.626C392.986 47.44 395.066 39.4 397.866 32.12C400.666 24.84 404.026 19.04 407.946 14.72C411.946 10.4 416.226 8.24 420.786 8.24C424.146 8.24 426.786 9.72 428.706 12.68C430.626 15.64 431.586 19.36 431.586 23.84C431.586 36.24 426.386 47.04 415.986 56.24H429.426C430.706 56.24 431.626 56.52 432.186 57.08C432.746 57.64 433.026 58.68 433.026 60.2C433.026 65.72 428.506 68.48 419.466 68.48H404.826C404.666 72.48 404.586 75.6 404.586 77.84C404.586 86.16 405.546 92 407.466 95.36C409.466 98.72 412.586 100.4 416.826 100.4C420.266 100.4 423.306 99.36 425.946 97.28C428.586 95.2 431.706 92.08 435.306 87.92C436.266 86.8 437.346 86.24 438.546 86.24ZM417.546 19.76C416.346 19.76 414.986 21.28 413.466 24.32C412.026 27.28 410.626 31.44 409.266 36.8C407.986 42.08 406.906 47.96 406.026 54.44C410.746 50.36 414.266 45.8 416.586 40.76C418.986 35.64 420.186 31 420.186 26.84C420.186 22.12 419.306 19.76 417.546 19.76ZM447.855 49.16C444.495 49.16 441.975 48.4 440.295 46.88C438.615 45.28 437.775 43.08 437.775 40.28C437.775 37.48 438.855 35.16 441.015 33.32C443.255 31.4 446.015 30.44 449.295 30.44C452.255 30.44 454.655 31.16 456.495 32.6C458.335 34.04 459.255 36.08 459.255 38.72C459.255 41.92 458.215 44.48 456.135 46.4C454.055 48.24 451.295 49.16 447.855 49.16ZM446.895 113.6C441.695 113.6 437.895 111.76 435.495 108.08C433.175 104.4 432.015 99.52 432.015 93.44C432.015 89.84 432.455 85.24 433.335 79.64C434.295 73.96 435.495 68.68 436.935 63.8C437.655 61.24 438.615 59.48 439.815 58.52C441.015 57.56 442.935 57.08 445.575 57.08C449.655 57.08 451.695 58.44 451.695 61.16C451.695 63.16 450.935 67.8 449.415 75.08C447.495 83.88 446.535 89.84 446.535 92.96C446.535 95.36 446.855 97.2 447.495 98.48C448.135 99.76 449.215 100.4 450.735 100.4C452.175 100.4 453.975 99.4 456.135 97.4C458.295 95.4 461.175 92.24 464.775 87.92C465.735 86.8 466.815 86.24 468.015 86.24C469.055 86.24 469.855 86.72 470.415 87.68C471.055 88.64 471.375 89.96 471.375 91.64C471.375 94.84 470.615 97.32 469.095 99.08C461.175 108.76 453.775 113.6 446.895 113.6ZM470.186 113.6C467.146 113.6 464.986 112 463.706 108.8C462.506 105.6 461.906 100.48 461.906 93.44C461.906 83.04 463.386 73.16 466.346 63.8C467.066 61.48 468.226 59.8 469.826 58.76C471.506 57.64 473.826 57.08 476.786 57.08C478.386 57.08 479.506 57.28 480.146 57.68C480.786 58.08 481.106 58.84 481.106 59.96C481.106 61.24 480.506 64.12 479.306 68.6C478.506 71.8 477.866 74.6 477.386 77C476.906 79.4 476.506 82.36 476.186 85.88C478.826 79 481.786 73.4 485.066 69.08C488.346 64.76 491.546 61.68 494.666 59.84C497.866 58 500.786 57.08 503.426 57.08C508.626 57.08 511.226 59.68 511.226 64.88C511.226 68 510.346 73.64 508.586 81.8C507.066 88.76 506.306 93.36 506.306 95.6C506.306 98.8 507.466 100.4 509.786 100.4C511.386 100.4 513.266 99.44 515.426 97.52C517.666 95.52 520.626 92.32 524.306 87.92C525.266 86.8 526.346 86.24 527.546 86.24C528.586 86.24 529.386 86.72 529.946 87.68C530.586 88.64 530.906 89.96 530.906 91.64C530.906 94.84 530.146 97.32 528.626 99.08C525.186 103.32 521.466 106.8 517.466 109.52C513.546 112.24 509.066 113.6 504.026 113.6C499.946 113.6 496.866 112.44 494.786 110.12C492.706 107.72 491.666 104.28 491.666 99.8C491.666 97.56 492.226 93.56 493.346 87.8C494.386 82.76 494.906 79.28 494.906 77.36C494.906 76.08 494.466 75.44 493.586 75.44C492.546 75.44 491.066 76.8 489.146 79.52C487.306 82.16 485.386 85.68 483.386 90.08C481.466 94.48 479.906 99.12 478.706 104C477.826 107.76 476.786 110.32 475.586 111.68C474.466 112.96 472.666 113.6 470.186 113.6ZM561.878 61.04C563.878 61.04 565.278 61.36 566.078 62C566.958 62.56 567.398 63.72 567.398 65.48C567.398 66.44 567.358 67.2 567.278 67.76C566.958 70.24 565.958 76.64 564.278 86.96C563.078 93.92 562.318 98.52 561.998 100.76C558.958 121.4 554.838 137.68 549.638 149.6C544.518 161.6 537.638 167.6 528.998 167.6C524.918 167.6 521.598 166.32 519.038 163.76C516.478 161.28 515.197 158 515.197 153.92C515.197 148.24 517.438 142.12 521.918 135.56C526.398 129.08 534.798 121.08 547.117 111.56L547.838 106.88C546.478 109.04 544.678 110.72 542.438 111.92C540.278 113.04 538.118 113.6 535.958 113.6C530.998 113.6 527.038 111.8 524.078 108.2C521.118 104.6 519.638 99.88 519.638 94.04C519.638 87.64 521.118 81.6 524.078 75.92C527.038 70.16 530.958 65.56 535.838 62.12C540.798 58.6 546.038 56.84 551.558 56.84C553.318 56.84 554.478 57.2 555.038 57.92C555.678 58.56 556.198 59.76 556.598 61.52C558.118 61.2 559.878 61.04 561.878 61.04ZM540.278 101.48C542.118 101.48 543.878 100.36 545.558 98.12C547.238 95.88 548.438 92.68 549.158 88.52L552.998 68C549.718 68.08 546.678 69.36 543.878 71.84C541.078 74.24 538.838 77.44 537.158 81.44C535.478 85.44 534.638 89.68 534.638 94.16C534.638 96.64 535.118 98.48 536.078 99.68C537.118 100.88 538.518 101.48 540.278 101.48ZM530.318 155.96C532.318 155.96 534.558 153.56 537.038 148.76C539.598 143.96 542.038 136.32 544.358 125.84C538.198 131.12 533.758 135.88 531.038 140.12C528.318 144.36 526.958 148.08 526.958 151.28C526.958 152.64 527.198 153.76 527.678 154.64C528.238 155.52 529.118 155.96 530.318 155.96ZM708.142 86.48C709.182 86.48 709.982 87 710.542 88.04C711.182 89 711.502 90.24 711.502 91.76C711.502 93.6 711.222 95.04 710.662 96.08C710.102 97.12 709.222 98.04 708.022 98.84C703.302 101.96 695.782 107.08 685.462 114.2C682.342 130.76 678.302 143.8 673.342 153.32C668.382 162.84 662.102 167.6 654.502 167.6C650.422 167.6 647.102 166.32 644.542 163.76C641.982 161.28 640.702 158 640.702 153.92C640.702 150.16 641.542 146.36 643.222 142.52C644.902 138.68 648.022 134.24 652.582 129.2C657.222 124.16 663.742 118.4 672.142 111.92L672.502 109.64C666.182 112.28 659.982 113.6 653.902 113.6C644.942 113.6 637.062 111.88 630.262 108.44C623.462 104.92 618.182 99.96 614.422 93.56C610.662 87.16 608.782 79.72 608.782 71.24C608.782 59.4 611.022 48.96 615.502 39.92C619.982 30.8 626.142 23.76 633.982 18.8C641.902 13.76 650.742 11.24 660.502 11.24C669.862 11.24 676.862 13.44 681.502 17.84C686.222 22.16 688.582 27.92 688.582 35.12C688.582 39.84 687.702 43.64 685.942 46.52C684.262 49.32 681.822 50.72 678.622 50.72C676.462 50.72 674.702 50.2 673.342 49.16C672.062 48.12 671.422 46.68 671.422 44.84C671.422 44.04 671.582 42.68 671.902 40.76C672.382 38.52 672.622 36.76 672.622 35.48C672.622 32.12 671.582 29.52 669.502 27.68C667.502 25.84 664.102 24.92 659.302 24.92C653.462 24.92 648.022 26.6 642.982 29.96C638.022 33.32 634.022 38.36 630.982 45.08C627.942 51.72 626.422 59.72 626.422 69.08C626.422 78.68 629.022 86.12 634.222 91.4C639.502 96.6 647.102 99.2 657.022 99.2C662.542 99.2 668.302 97.96 674.302 95.48L675.982 80.84H663.742C661.502 80.84 659.782 80.32 658.582 79.28C657.382 78.16 656.782 76.36 656.782 73.88C656.782 71.64 657.382 69.88 658.582 68.6C659.782 67.32 661.382 66.68 663.382 66.68H685.822C687.582 66.68 689.022 67.28 690.142 68.48C691.342 69.6 691.822 71.24 691.582 73.4C691.342 75.96 690.542 81.76 689.182 90.8L687.862 99.92C694.262 95.12 700.102 90.96 705.382 87.44C706.422 86.8 707.342 86.48 708.142 86.48ZM655.822 155.96C657.902 155.96 660.182 153.6 662.662 148.88C665.142 144.16 667.462 136.56 669.622 126.08C663.542 131.28 659.142 135.96 656.422 140.12C653.782 144.36 652.462 148.08 652.462 151.28C652.462 154.4 653.582 155.96 655.822 155.96ZM717.715 113.6C712.755 113.6 708.795 111.8 705.835 108.2C702.875 104.6 701.395 99.88 701.395 94.04C701.395 87.64 702.875 81.6 705.835 75.92C708.795 70.16 712.715 65.56 717.595 62.12C722.555 58.6 727.795 56.84 733.315 56.84C735.075 56.84 736.235 57.2 736.795 57.92C737.435 58.56 737.955 59.76 738.355 61.52C740.035 61.2 741.795 61.04 743.635 61.04C747.555 61.04 749.515 62.44 749.515 65.24C749.515 66.92 748.915 70.92 747.715 77.24C745.875 86.44 744.955 92.84 744.955 96.44C744.955 97.64 745.235 98.6 745.795 99.32C746.435 100.04 747.235 100.4 748.195 100.4C749.715 100.4 751.555 99.44 753.715 97.52C755.875 95.52 758.795 92.32 762.475 87.92C763.435 86.8 764.515 86.24 765.715 86.24C766.755 86.24 767.555 86.72 768.115 87.68C768.755 88.64 769.075 89.96 769.075 91.64C769.075 94.84 768.315 97.32 766.795 99.08C763.515 103.16 760.035 106.6 756.355 109.4C752.675 112.2 749.115 113.6 745.675 113.6C743.035 113.6 740.595 112.72 738.355 110.96C736.195 109.12 734.555 106.64 733.435 103.52C729.275 110.24 724.035 113.6 717.715 113.6ZM722.035 101.48C723.795 101.48 725.475 100.44 727.075 98.36C728.675 96.28 729.835 93.52 730.555 90.08L734.995 68C731.635 68.08 728.515 69.36 725.635 71.84C722.835 74.24 720.595 77.44 718.915 81.44C717.235 85.44 716.395 89.68 716.395 94.16C716.395 96.64 716.875 98.48 717.835 99.68C718.875 100.88 720.275 101.48 722.035 101.48ZM767.843 113.6C764.803 113.6 762.643 112 761.363 108.8C760.163 105.6 759.563 100.48 759.563 93.44C759.563 83.04 761.043 73.16 764.003 63.8C764.723 61.48 765.883 59.8 767.483 58.76C769.163 57.64 771.483 57.08 774.443 57.08C776.043 57.08 777.163 57.28 777.803 57.68C778.443 58.08 778.763 58.84 778.763 59.96C778.763 61.24 778.163 64.12 776.963 68.6C776.163 71.8 775.523 74.6 775.043 77C774.563 79.4 774.163 82.36 773.843 85.88C776.483 79 779.443 73.4 782.723 69.08C786.003 64.76 789.203 61.68 792.323 59.84C795.523 58 798.443 57.08 801.083 57.08C806.283 57.08 808.883 59.68 808.883 64.88C808.883 65.92 808.523 68.44 807.803 72.44C807.163 75.64 806.843 77.64 806.843 78.44C806.843 81.24 807.843 82.64 809.843 82.64C812.083 82.64 814.963 80.88 818.483 77.36C819.523 76.32 820.603 75.8 821.723 75.8C822.763 75.8 823.563 76.28 824.122 77.24C824.763 78.12 825.083 79.32 825.083 80.84C825.083 83.8 824.283 86.12 822.683 87.8C820.443 90.12 817.803 92.12 814.763 93.8C811.803 95.4 808.643 96.2 805.283 96.2C801.043 96.2 797.803 95.12 795.563 92.96C793.403 90.8 792.323 87.88 792.323 84.2C792.323 83 792.443 81.8 792.683 80.6C792.843 79 792.923 77.92 792.923 77.36C792.923 76.08 792.483 75.44 791.603 75.44C790.403 75.44 788.803 76.8 786.803 79.52C784.883 82.16 782.963 85.68 781.043 90.08C779.123 94.48 777.563 99.12 776.363 104C775.483 107.76 774.443 110.32 773.243 111.68C772.123 112.96 770.323 113.6 767.843 113.6ZM882.092 86.24C883.132 86.24 883.932 86.72 884.492 87.68C885.132 88.64 885.452 89.96 885.452 91.64C885.452 94.84 884.692 97.32 883.172 99.08C879.892 103.08 876.292 106.52 872.372 109.4C868.452 112.2 864.572 113.6 860.732 113.6C854.652 113.6 850.012 110.04 846.812 102.92C843.452 107.16 840.492 110 837.932 111.44C835.452 112.88 832.532 113.6 829.172 113.6C824.292 113.6 820.252 111.8 817.052 108.2C813.932 104.52 812.372 99.76 812.372 93.92C812.372 87.52 813.732 81.6 816.452 76.16C819.172 70.64 822.892 66.16 827.612 62.72C832.412 59.2 837.772 57.12 843.692 56.48C845.212 40.96 848.092 27.72 852.332 16.76C856.652 5.71999 862.292 0.199993 869.252 0.199993C872.692 0.199993 875.532 1.75999 877.772 4.88C880.092 8 881.252 12.72 881.252 19.04C881.252 28 879.052 38.48 874.652 50.48C870.252 62.48 864.372 74.8 857.012 87.44C857.332 92.08 858.012 95.4 859.052 97.4C860.172 99.4 861.572 100.4 863.252 100.4C865.412 100.4 867.612 99.44 869.852 97.52C872.092 95.6 875.092 92.4 878.852 87.92C879.812 86.8 880.892 86.24 882.092 86.24ZM867.932 11.96C866.412 11.96 864.892 14.68 863.372 20.12C861.852 25.48 860.532 32.52 859.412 41.24C858.372 49.96 857.612 59.08 857.132 68.6C866.092 49.08 870.572 33.4 870.572 21.56C870.572 18.52 870.292 16.16 869.732 14.48C869.252 12.8 868.652 11.96 867.932 11.96ZM833.372 101.48C834.892 101.48 836.412 100.88 837.932 99.68C839.452 98.4 841.372 96.08 843.692 92.72C842.892 88.4 842.492 83.56 842.492 78.2C842.492 76.28 842.572 73.16 842.732 68.84C838.332 70.2 834.652 73.16 831.692 77.72C828.812 82.2 827.372 87.2 827.372 92.72C827.372 98.56 829.372 101.48 833.372 101.48ZM929.21 86.24C930.25 86.24 931.05 86.72 931.61 87.68C932.25 88.64 932.57 89.96 932.57 91.64C932.57 94.84 931.81 97.32 930.29 99.08C927.33 102.68 923.13 106 917.69 109.04C912.33 112.08 906.57 113.6 900.41 113.6C892.01 113.6 885.49 111.32 880.85 106.76C876.21 102.2 873.89 95.96 873.89 88.04C873.89 82.52 875.05 77.4 877.37 72.68C879.69 67.88 882.89 64.08 886.97 61.28C891.13 58.48 895.81 57.08 901.01 57.08C905.65 57.08 909.37 58.48 912.17 61.28C914.97 64 916.37 67.72 916.37 72.44C916.37 77.96 914.37 82.72 910.37 86.72C906.45 90.64 899.77 93.76 890.33 96.08C892.33 99.76 896.13 101.6 901.73 101.6C905.33 101.6 909.41 100.36 913.97 97.88C918.61 95.32 922.61 92 925.97 87.92C926.93 86.8 928.01 86.24 929.21 86.24ZM898.97 68.84C896.01 68.84 893.49 70.56 891.41 74C889.41 77.44 888.41 81.6 888.41 86.48V86.72C893.13 85.6 896.85 83.92 899.57 81.68C902.29 79.44 903.65 76.84 903.65 73.88C903.65 72.36 903.21 71.16 902.33 70.28C901.53 69.32 900.41 68.84 898.97 68.84ZM931.319 113.6C928.279 113.6 926.119 112 924.839 108.8C923.639 105.6 923.039 100.48 923.039 93.44C923.039 83.04 924.519 73.16 927.479 63.8C928.199 61.48 929.359 59.8 930.959 58.76C932.639 57.64 934.959 57.08 937.919 57.08C939.519 57.08 940.639 57.28 941.279 57.68C941.919 58.08 942.239 58.84 942.239 59.96C942.239 61.24 941.639 64.12 940.439 68.6C939.639 71.8 938.999 74.6 938.519 77C938.039 79.4 937.639 82.36 937.319 85.88C939.959 79 942.919 73.4 946.199 69.08C949.479 64.76 952.679 61.68 955.799 59.84C958.999 58 961.919 57.08 964.559 57.08C967.119 57.08 969.039 57.76 970.319 59.12C971.679 60.4 972.359 62.32 972.359 64.88C972.359 66.96 971.919 70.88 971.039 76.64C970.239 81.52 969.599 86.16 969.119 90.56C968.639 94.88 968.399 99.72 968.399 105.08C968.399 108.12 967.759 110.32 966.479 111.68C965.279 112.96 963.279 113.6 960.479 113.6C957.839 113.6 955.919 112.92 954.719 111.56C953.519 110.2 952.919 108.16 952.919 105.44C952.919 102.24 953.479 96.96 954.599 89.6C955.559 83.2 956.039 79.12 956.039 77.36C956.039 76.08 955.599 75.44 954.719 75.44C953.679 75.44 952.199 76.8 950.279 79.52C948.439 82.16 946.519 85.68 944.519 90.08C942.599 94.48 941.039 99.12 939.839 104C938.959 107.76 937.919 110.32 936.719 111.68C935.599 112.96 933.799 113.6 931.319 113.6Z" fill="white"/>
</svg>
